<?xml version="1.0" encoding="UTF-8"?>
<svg width="108px" height="72px" viewBox="0 0 108 72" version="1.1" xmlns="http://www.w3.org/2000/svg" xmlns:xlink="http://www.w3.org/1999/xlink">
    <!-- Generator: Sketch 53.2 (72643) - https://sketchapp.com -->
    <title>Chargee_logo_rgb_Logo Black</title>
    <desc>Created with Sketch.</desc>
    <g id="Page-1" stroke="none" stroke-width="1" fill="none" fill-rule="evenodd">
        <g id="Chargee_logo_rgb_Logo-Black" fill="#000000" fill-rule="nonzero">
            <g id="Group">
                <path d="M36.39,35.11 L70.82,35.11 C71.15,22.75 77.65,11.29 88.03,4.6 C83.17,2.08 77.65,0.65 71.81,0.65 C52.6,0.65 36.92,16.02 36.39,35.1 L36.39,35.11 Z" id="Path"></path>
                <path d="M72.82,35.11 L107.23,35.11 C107.23,35.01 107.23,34.91 107.23,34.81 C107.21,34.25 107.18,33.69 107.13,33.14 C107.12,33.02 107.11,32.9 107.1,32.78 C106.47,26.16 103.98,19.89 100.02,14.68 C99.92,14.55 99.82,14.42 99.72,14.29 C99.43,13.92 99.13,13.55 98.82,13.19 C98.64,12.97 98.45,12.76 98.26,12.55 C98.04,12.3 97.8,12.05 97.57,11.81 C96.62,10.8 95.61,9.84 94.54,8.95 C94.44,8.87 94.35,8.79 94.25,8.71 C93.87,8.4 93.48,8.1 93.09,7.8 C93,7.74 92.92,7.67 92.83,7.61 C91.92,6.94 90.98,6.31 90.01,5.72 C79.67,11.94 73.16,23.08 72.82,35.12 L72.82,35.11 Z" id="Path"></path>
                <path d="M34.46,37.11 L0.04,37.11 C0.38,49.16 6.9,60.31 17.25,66.53 C27.61,60.31 34.12,49.15 34.46,37.11 Z" id="Path"></path>
                <path d="M70.78,37.11 L36.46,37.11 C36.13,49.49 29.62,60.97 19.21,67.65 C24.06,70.14 29.55,71.56 35.36,71.56 C54.57,71.56 70.25,56.2 70.78,37.11 L70.78,37.11 Z" id="Path"></path>
            </g>
        </g>
    </g>
</svg>