<?xml version="1.0" encoding="UTF-8"?>
<svg width="600px" height="600px" viewBox="0 0 600 600" version="1.1" xmlns="http://www.w3.org/2000/svg" xmlns:xlink="http://www.w3.org/1999/xlink">
    <!-- Generator: Sketch 53.2 (72643) - https://sketchapp.com -->
    <title>/assets/icon</title>
    <desc>Created with Sketch.</desc>
    <g id="/assets/icon" stroke="none" stroke-width="1" fill="none" fill-rule="evenodd">
        <g id="Chargee_logo_rgb_Logo-RGB" transform="translate(44.000000, 131.000000)" fill-rule="nonzero">
            <g id="Symbol" transform="translate(0.000000, 0.000000)">
                <path d="M170.283702,169.467051 C170.283702,75.8993464 246.421511,0.0411775315 340.334139,0.0411775315 C434.246768,0.0411775315 510.384577,75.8993464 510.384577,169.467051" id="Path" fill="#FFD602"></path>
                <path d="M425.336031,22.7242574 C374.530839,52.0077417 340.334139,106.763209 340.334139,169.467051 L510.384577,169.467051 C510.384577,106.763209 476.187877,52.0077417 425.382685,22.7242574 L425.336031,22.7242574 Z" id="Path" fill="#FF8500"></path>
                <path d="M0.279918415,169.467051 C0.279918415,263.034756 76.4177273,338.892924 170.330355,338.892924 C264.242984,338.892924 340.380793,263.034756 340.380793,169.467051" id="Path" fill="#FFD602"></path>
                <path d="M0.279918415,169.467051 C0.279918415,263.034756 76.4177273,338.892924 170.330355,338.892924 C264.242984,338.892924 340.380793,263.034756 340.380793,169.467051" id="Path" fill="#6245DE"></path>
                <path d="M85.2818104,316.163363 C136.087003,286.879878 170.283702,232.124411 170.283702,169.420569 L0.233265346,169.420569 C0.233265346,232.124411 34.429965,286.879878 85.2351573,316.163363 L85.2818104,316.163363 Z" id="Path" fill="#FF8500"></path>
            </g>
        </g>
    </g>
</svg>