<?xml version="1.0" encoding="UTF-8"?>
<svg width="600px" height="600px" viewBox="0 0 600 600" version="1.1" xmlns="http://www.w3.org/2000/svg" xmlns:xlink="http://www.w3.org/1999/xlink">
    <!-- Generator: Sketch 53.2 (72643) - https://sketchapp.com -->
    <title>/drivers/YOUR_DRIVER_ID/assets/icon</title>
    <desc>Created with Sketch.</desc>
    <g id="/drivers/YOUR_DRIVER_ID/assets/icon" stroke="none" stroke-width="1" fill="none" fill-rule="evenodd">
        <g id="68da0a4ac51946dcb2d5eebe7633eab5" transform="translate(0.000000, 136.000000)" fill="#000000" fill-rule="nonzero">
            <g id="Group" transform="translate(300.000000, 164.000000) scale(-1, 1) rotate(-180.000000) translate(-300.000000, -164.000000) ">
                <path d="M143.49292,324.90566 C138.637896,323.291222 131.220499,319.793273 126.904922,317.23708 C111.800405,308.088597 82.8051247,275.530763 43.9649359,224.406891 C13.890762,184.584085 4.4504383,169.78507 0.8091706,156.196883 C-1.2137559,148.662838 0.944032367,140.052502 6.60822657,133.325677 C11.4632502,127.540607 30.3438975,101.305989 40.8631153,85.6997539 C44.6392448,80.0492207 49.4942684,73.8605414 51.7869184,71.9770304 C58.6648685,66.3264971 50.9777478,67.8063987 155.765341,51.392945 C214.834794,42.1099262 270.26298,33.6341263 299.393122,29.3289582 C320.971005,26.100082 360.890088,20.0459393 437.626433,8.47579984 C502.225219,-1.34536505 510.991234,-1.88351107 523.128793,3.49794914 C534.592043,8.61033634 540.930546,15.0680886 554.146999,35.2485644 C568.442347,57.0434783 575.859744,69.5553733 586.378962,90.6776046 C598.516521,114.894176 600,120.006563 599.865138,139.648893 C599.730276,163.59639 595.144976,184.180476 583.681726,211.222313 C575.859744,230.057424 567.9029,242.838392 546.864464,270.687449 C537.42414,283.33388 528.658125,295.845775 527.579231,298.536505 C524.612272,305.66694 515.441672,312.797375 507.215105,314.546349 C503.438975,315.219032 471.476736,316.83347 436.277815,317.909762 C401.078894,319.120591 326.095752,321.811321 269.723533,323.963905 C213.351315,326.251025 163.857047,328 159.811194,328 C155.765341,328 148.347943,326.520098 143.49292,324.90566 Z M298.044504,315.891715 C357.383682,313.73913 421.443021,311.317473 440.323668,310.510254 C459.204316,309.837572 479.973028,309.164889 486.446392,309.164889 C508.42886,309.164889 520.026972,304.052502 522.049899,293.424118 C523.937964,283.199344 514.767363,261.269893 486.176669,208.935193 C456.911666,155.255127 434.389751,120.141099 419.420094,105.207547 C403.371544,88.92863 393.93122,87.0451189 356.709373,92.4265792 C293.86379,101.440525 133.513149,122.697293 57.3162508,132.249385 C36.1429535,134.805578 17.1274444,137.630845 14.9696561,138.303527 C2.56237357,142.474159 5.12474713,158.080394 22.3870533,183.64233 C43.0209036,214.182116 91.301416,274.723544 110.991234,294.90402 C132.703978,317.102543 143.49292,321.542248 171.948753,320.600492 C181.928523,320.196883 238.705327,318.178835 298.044504,315.891715 Z M543.49292,263.960623 C556.169926,247.009024 556.979096,245.529122 556.574511,240.147662 C556.169926,233.420837 554.551585,227.770304 549.831423,217.276456 C547.134187,211.087777 546.729602,209.204266 548.07822,207.858901 C549.426837,206.648072 550.505732,207.051682 553.068105,210.280558 C556.304788,214.316653 561.699258,228.30845 561.699258,232.613618 C561.699258,238.66776 564.666217,235.169811 572.218476,219.967186 C580.714767,202.88105 586.783547,185.660377 590.694538,167.228876 C593.391773,154.851518 594.200944,125.522559 591.908294,121.621001 C590.559676,119.33388 590.289953,119.33388 589.480782,122.562756 C588.267026,127.80968 580.579906,140.321575 562.643291,166.959803 C543.088334,195.750615 536.884693,202.88105 531.220499,202.88105 C525.556305,202.88105 523.263655,200.055783 511.126096,177.319114 C505.32704,166.556194 498.044504,153.909762 495.077546,149.066448 C481.456507,127.540607 480.782198,121.351928 490.08766,107.629204 C496.021578,98.8843314 518.543493,60.0032814 526.230614,45.0697293 L531.085637,35.9212469 L526.635199,31.3470057 C524.207687,28.7908121 519.487525,25.561936 515.981119,24.0820345 C504.113284,19.1041838 496.96561,19.2387203 451.92178,25.831009 C428.99528,29.1944217 409.710047,31.6160788 409.1706,31.2124692 C407.552259,30.2707137 407.687121,27.0418376 409.305462,25.9655455 C409.979771,25.561936 429.265003,22.4675964 452.056642,19.1041838 C497.235334,12.511895 505.32704,12.242822 517.194875,17.3552092 C520.701281,18.8351107 525.826028,22.4675964 528.792987,25.4273995 C531.625084,28.2526661 534.996628,30.6743232 536.345246,30.6743232 C539.042481,30.6743232 547.403911,42.5135357 561.699258,66.9991797 C576.264329,92.1575062 583.546864,103.593109 584.221173,102.920427 C585.839514,101.171452 562.373567,59.0615258 547.943358,37.804758 C534.996628,18.7005742 528.25354,12.511895 517.464599,9.14848236 C512.744437,7.6685808 506.810519,6.45775226 504.383007,6.45775226 C500.472016,6.45775226 449.089683,13.9917966 347.943358,29.3289582 C333.108564,31.6160788 302.764666,36.0557834 280.512475,39.4191961 C258.260283,42.6480722 232.231962,46.6841674 222.521915,48.1640689 C212.94673,49.778507 177.747808,55.1599672 144.30209,60.4068909 C64.733648,72.6497129 61.0923803,73.3223954 55.8327714,77.2239541 L51.5171949,80.4528302 L60.8226568,79.6456112 C65.9474039,79.2420016 99.5279838,74.6677605 135.536076,69.4208368 C171.544167,64.3084495 209.305462,59.0615258 219.420094,57.7161608 C229.669589,56.3707957 238.840189,54.6218212 239.919083,53.6800656 C242.886042,51.2584085 298.853675,42.9171452 301.820634,44.3970468 C303.438975,45.2042658 309.777478,44.8006563 320.701281,42.9171452 C329.73702,41.4372436 350.101146,38.2083675 366.014835,35.9212469 C392.987188,31.8851518 395.684423,31.7506153 405.124747,33.2305168 C432.231962,37.6702215 457.99056,55.9671862 476.871207,84.0853158 C486.311531,98.3461854 488.199595,103.324036 483.749157,103.324036 C482.265678,103.324036 479.703304,100.364233 476.871207,95.6554553 C461.901551,70.3625923 440.45853,51.392945 417.801753,43.1862182 C402.832097,37.804758 396.493594,37.9392945 355.360755,44.1279737 C304.383007,51.7965546 309.372893,50.316653 307.484828,58.2543068 C305.32704,66.5955701 301.011463,70.3625923 291.706001,72.1115669 C279.163857,74.533224 246.931895,79.1074651 241.537424,79.3765381 C234.389751,79.6456112 232.0971,76.5512715 233.310856,67.9409352 C234.120027,61.7522559 233.985165,61.6177194 231.018206,62.1558655 C229.265003,62.559475 211.193527,65.2502051 190.8294,68.2100082 C104.922454,80.5873667 67.1611598,85.6997539 62.0364127,85.6997539 C51.6520566,85.4306809 48.0107889,88.121411 34.9291976,106.149303 C28.1861092,115.297785 21.5778827,124.580804 20.229265,126.598852 L17.8017532,130.365874 L23.0613621,129.558655 C26.028321,129.155045 49.8988537,126.060705 76.1968982,122.831829 C134.861767,115.432322 212.137559,105.207547 304.787593,92.4265792 C343.358058,87.0451189 379.770735,82.7399508 385.704653,82.6054143 C395.144976,82.6054143 397.842212,83.1435603 405.664194,86.7760459 C421.173297,94.0410172 432.906271,107.225595 454.619016,141.263331 C479.163857,179.875308 517.464599,251.179655 524.612272,271.898277 C526.635199,277.548811 528.658125,282.257588 529.197572,282.257588 C529.602158,282.257588 536.075523,274.050861 543.49292,263.960623 Z M539.447067,188.485644 C547.403911,178.395406 578.152394,132.652994 581.793661,125.253486 C583.546864,121.755537 584.221173,118.661198 583.546864,117.181296 C581.389076,111.665299 539.177343,41.8408532 537.289278,40.7645611 C536.749831,40.3609516 534.726905,42.9171452 532.83884,46.5496308 C527.579231,56.9089418 503.169252,99.4224774 496.426163,109.916325 C492.919757,115.297785 490.222522,121.082855 490.222522,123.235439 C490.222522,125.253486 493.324343,132.383921 497.100472,138.97621 C500.876601,145.703035 509.103169,160.502051 515.441672,171.937654 C521.780175,183.373257 527.579231,193.598031 528.388402,194.539787 C530.815914,197.634126 533.243425,196.154225 539.447067,188.485644 Z M270.397842,69.0172272 C284.153742,66.9991797 296.15644,64.7120591 297.100472,63.90484 C302.090357,59.8687449 302.360081,50.854799 297.505057,50.854799 C295.616993,50.854799 295.212407,51.662018 295.616993,54.0836751 C296.021578,55.8326497 295.482131,57.7161608 294.67296,58.2543068 C291.436278,60.2723544 246.797033,66.8646432 245.583277,65.6538146 C243.290627,63.366694 240.863115,64.173913 239.919083,67.5373257 C238.975051,71.7079573 240.323668,73.9950779 243.155765,73.1878589 C244.504383,72.7842494 256.641942,70.9007383 270.397842,69.0172272 Z M272.420769,56.1017227 C282.805125,54.4872847 290.627107,52.8728466 289.683075,52.6037736 C288.873904,52.3347006 281.861092,53.0073831 274.173972,54.0836751 C266.621713,55.1599672 256.776804,56.5053322 252.596089,57.0434783 C248.280512,57.4470878 244.774107,58.5233798 244.774107,59.1960623 C244.774107,60.0032814 246.662171,60.2723544 249.224545,59.7342084 C251.517195,59.3305989 262.036413,57.7161608 272.420769,56.1017227 Z" id="Shape"></path>
                <path d="M265.003372,255.215751 C236.952124,252.659557 193.256912,244.85644 190.424815,242.031173 C189.480782,241.089418 189.615644,240.013126 190.694538,238.802297 C192.043156,237.187859 194.335806,237.322395 206.743088,240.013126 C258.260283,251.045119 312.474713,253.063167 339.177343,244.721903 C347.403911,242.16571 350.910317,242.838392 349.561699,246.470878 C346.729602,253.870386 300.472016,258.7137 265.003372,255.215751 Z" id="Path"></path>
                <path d="M540.391099,205.302707 C540.660823,203.28466 541.739717,202.208368 543.49292,202.208368 C545.246123,202.208368 546.325017,203.28466 546.59474,205.302707 C546.999326,207.724364 546.459879,208.26251 543.49292,208.26251 C540.525961,208.26251 539.986514,207.724364 540.391099,205.302707 Z" id="Path"></path>
            </g>
        </g>
    </g>
</svg>